<?xml version="1.0" standalone="no"?>
<!DOCTYPE svg PUBLIC "-//W3C//DTD SVG 20010904//EN"
 "http://www.w3.org/TR/2001/REC-SVG-20010904/DTD/svg10.dtd">
<svg version="1.0" xmlns="http://www.w3.org/2000/svg"
 width="312.000000pt" height="175.000000pt" viewBox="0 0 312.000000 175.000000"
 preserveAspectRatio="xMidYMid meet">
<metadata>
Created by potrace 1.16, written by Peter Selinger 2001-2019
</metadata>
<g transform="translate(0.000000,175.000000) scale(0.100000,-0.100000)"
fill="#000000" stroke="none">
<path d="M2043 1318 c-10 -13 -423 -991 -423 -1002 0 -3 35 -6 78 -6 l77 0
209 499 c115 275 210 503 210 508 2 14 -140 15 -151 1z"/>
<path d="M910 861 l0 -431 95 0 95 0 2 168 3 167 130 -167 130 -168 124 0
c117 0 123 1 109 18 -8 9 -74 89 -147 176 l-133 160 39 19 c90 45 133 120 133
232 0 84 -22 137 -74 183 -69 60 -91 65 -308 70 l-198 4 0 -431z m348 236 c22
-23 27 -36 27 -77 0 -41 -5 -54 -27 -77 -23 -23 -38 -28 -93 -31 l-65 -4 0
112 0 112 65 -4 c55 -3 70 -8 93 -31z"/>
<path d="M493 1037 l-273 -111 0 -62 0 -61 53 -22 c184 -78 495 -201 505 -201
8 0 12 23 12 69 l0 69 -102 40 c-57 21 -138 52 -180 68 -43 16 -78 32 -78 35
0 4 66 32 148 64 81 32 162 64 180 71 32 13 32 13 32 83 0 51 -4 71 -12 70 -7
0 -136 -51 -285 -112z"/>
<path d="M2280 1079 c0 -70 0 -70 33 -83 17 -7 98 -39 180 -71 81 -32 147 -60
147 -64 0 -3 -35 -19 -78 -35 -42 -16 -123 -47 -179 -68 l-103 -40 0 -69 c0
-49 4 -69 13 -69 6 0 133 50 282 110 148 61 270 110 272 110 2 0 3 28 3 63 l0
62 -278 113 c-152 61 -280 112 -284 112 -5 0 -8 -32 -8 -71z"/>
</g>
</svg>
